mtllib material.mtl
usemtl stair_green
v 2.80353900 -3.02401000 0.00000000
v 2.80353900 -2.42401000 0.00000000
v -1.99646200 -3.62401000 0.00000000
v -1.99646200 -2.42401100 0.00000000
v -1.99646100 -4.22401000 0.00000000
v -1.99646200 -1.82401000 0.00000000
v -1.99646200 -1.22401000 0.00000000
v -1.99646200 -1.22401000 0.00000000
v -1.99646100 -4.82401100 0.00000000
v -1.99646100 -4.82401100 0.00000000
v -0.79646200 -1.22401000 0.00000000
v 1.60353900 -4.82401000 0.00000000
v 0.40353900 -4.82401000 0.00000000
v -0.79646100 -4.82401000 0.00000000
v 2.80353900 -3.62401000 0.00000000
v -1.99646200 -2.42401100 0.20000000
v -1.99646200 -2.42401100 0.20000000
v -1.99646200 -1.82401000 0.20000000
v -1.99646200 -1.82401000 0.20000000
v -0.79646200 -2.42401100 0.20000000
v -1.99646200 -1.22401000 0.20000000
v -1.99646200 -1.22401000 0.20000000
v -1.99646200 -1.22401000 0.20000000
v -0.79646200 -1.22401000 0.20000000
v -0.79646200 -1.22401000 0.20000000
v -0.79646100 -4.82401000 0.20000000
v -0.79646100 -4.82401000 0.20000000
v -0.79646100 -3.62401000 0.20000000
v -1.99646100 -4.82401100 0.20000000
v -1.99646100 -4.82401100 0.20000000
v -1.99646100 -4.82401100 0.20000000
v -1.99646100 -4.22401000 0.20000000
v -1.99646100 -4.22401000 0.20000000
v -1.99646200 -3.62401000 0.20000000
v -1.99646200 -3.62401000 0.20000000
v 1.60353900 -4.82401000 0.20000000
v 1.60353900 -4.82401000 0.20000000
v 1.60353900 -3.62401000 0.20000000
v 0.40353800 -3.62401000 0.20000000
v 0.40353900 -4.82401000 0.20000000
v 0.40353900 -4.82401000 0.20000000
v 2.80353900 -3.62401000 0.20000000
v 2.80353900 -3.62401000 0.20000000
v 2.80353900 -3.02401000 0.20000000
v 2.80353900 -3.02401000 0.20000000
v 1.60353900 -3.62401000 0.20000000
v 1.60353800 -2.42401000 0.20000000
v 2.80353900 -2.42401000 0.20000000
v 2.80353900 -2.42401000 0.20000000
v -1.99646200 -1.25401000 0.00000000
v -1.99646100 -4.79401100 0.00000000
vn 1.00000000 -0.00000000 -0.00000000
vn 1.00000000 -0.00000000 -0.00000000
vn -1.00000000 -0.00000000 -0.00000000
vn -1.00000000 -0.00000000 -0.00000000
vn -1.00000000 -0.00000000 -0.00000000
vn -1.00000000 -0.00000000 -0.00000000
vn -1.00000000 -0.00000000 -0.00000000
vn -0.00000000 1.00000000 -0.00000000
vn -0.00000000 -1.00000000 -0.00000000
vn -1.00000000 -0.00000000 -0.00000000
vn -0.00000000 1.00000000 -0.00000000
vn -0.00000000 -1.00000000 -0.00000000
vn -0.00000000 -1.00000000 -0.00000000
vn -0.00000000 -1.00000000 -0.00000000
vn 1.00000000 -0.00000000 -0.00000000
vn -1.00000000 -0.00000000 -0.00000000
vn -0.00000000 -0.00000000 1.00000000
vn -0.00000000 -0.00000000 1.00000000
vn -1.00000000 -0.00000000 -0.00000000
vn -0.00000000 -0.00000000 1.00000000
vn -0.00000000 -0.00000000 1.00000000
vn -1.00000000 -0.00000000 -0.00000000
vn -0.00000000 1.00000000 -0.00000000
vn -0.00000000 1.00000000 -0.00000000
vn -0.00000000 -0.00000000 1.00000000
vn -0.00000000 -1.00000000 -0.00000000
vn -0.00000000 -0.00000000 1.00000000
vn -0.00000000 -0.00000000 1.00000000
vn -1.00000000 -0.00000000 -0.00000000
vn -0.00000000 -0.00000000 1.00000000
vn -0.00000000 -1.00000000 -0.00000000
vn -0.00000000 -0.00000000 1.00000000
vn -1.00000000 -0.00000000 -0.00000000
vn -1.00000000 -0.00000000 -0.00000000
vn -0.00000000 -0.00000000 1.00000000
vn -0.00000000 -0.00000000 1.00000000
vn -0.00000000 -1.00000000 -0.00000000
vn -0.00000000 -0.00000000 1.00000000
vn -0.00000000 -0.00000000 1.00000000
vn -0.00000000 -0.00000000 1.00000000
vn -0.00000000 -1.00000000 -0.00000000
vn -0.00000000 -0.00000000 1.00000000
vn 1.00000000 -0.00000000 -0.00000000
vn 1.00000000 -0.00000000 -0.00000000
vn -0.00000000 -0.00000000 1.00000000
vn -0.00000000 -0.00000000 1.00000000
vn -0.00000000 -0.00000000 1.00000000
vn -0.00000000 -0.00000000 1.00000000
vn 1.00000000 -0.00000000 -0.00000000
vn -1.00000000 -0.00000000 -0.00000000
vn -1.00000000 -0.00000000 -0.00000000
vt 0.83333300 0.96153800
vt 0.83333300 1.00000000
vt 0.52564100 0.92307700
vt 0.58974400 1.00000000
vt 0.52564100 0.96153800
vt 0.58974400 0.96153800
vt 0.58974400 0.92307700
vt 0.73076900 1.00000000
vt 0.74359000 0.92307700
vt 0.52564100 1.00000000
vt 0.73076900 0.92307700
vt 0.76923100 1.00000000
vt 0.76923100 0.92307700
vt 0.74359000 1.00000000
vt 0.83333300 0.92307700
vt 0.57692300 1.00000000
vt 0.88466500 0.73076900
vt 0.88466500 0.69230800
vt 0.57692300 0.96153800
vt 0.80774200 0.73076900
vt 0.88466500 0.65384600
vt 0.57692300 0.92307700
vt 0.71794900 1.00000000
vt 0.71794900 0.92307700
vt 0.80774200 0.65384600
vt 0.73076900 1.00000000
vt 0.69230600 0.84615400
vt 0.69230600 0.76923100
vt 0.51282100 1.00000000
vt 0.76922900 0.84615400
vt 0.73076900 0.92307700
vt 0.76922900 0.80769200
vt 0.51282100 0.96153800
vt 0.51282100 0.92307700
vt 0.76922900 0.76923100
vt 0.91030600 -0.00000000
vt 0.75641000 1.00000000
vt 0.91030600 0.07692300
vt 0.83338300 0.07692300
vt 0.83338300 -0.00000000
vt 0.75641000 0.92307700
vt 0.83338300 0.15384600
vt 0.82051200 0.92307700
vt 0.82051200 0.96153800
vt 0.83338300 0.11538500
vt 0.91030600 0.15384600
vt 0.91030600 0.07692300
vt 0.83338300 0.07692300
vt 0.82051200 1.00000000
vt 0.58974400 0.92500000
vt 0.52564100 0.99807700
f 29/29/29 5/5/5 51/51/51
f 18/18/18 20/20/20 25/25/25
f 19/19/19 7/7/7 50/50/50
f 23/23/23 11/11/11 8/8/8
f 16/16/16 6/6/6 4/4/4
f 32/32/32 27/27/27 28/28/28
f 26/26/26 9/9/9 14/14/14
f 33/33/33 3/3/3 5/5/5
f 40/40/40 38/38/38 39/39/39
f 37/37/37 13/13/13 12/12/12
f 46/46/46 45/45/45 48/48/48
f 49/49/49 1/1/1 2/2/2
f 44/44/44 15/15/15 1/1/1
f 51/51/51 10/10/10 29/29/29
f 29/29/29 33/33/33 5/5/5
f 25/25/25 21/21/21 18/18/18
f 18/18/18 17/17/17 20/20/20
f 50/50/50 6/6/6 19/19/19
f 19/19/19 22/22/22 7/7/7
f 23/23/23 24/24/24 11/11/11
f 16/16/16 19/19/19 6/6/6
f 28/28/28 35/35/35 32/32/32
f 32/32/32 30/30/30 27/27/27
f 26/26/26 31/31/31 9/9/9
f 33/33/33 34/34/34 3/3/3
f 40/40/40 36/36/36 38/38/38
f 37/37/37 41/41/41 13/13/13
f 48/48/48 47/47/47 46/46/46
f 46/46/46 42/42/42 45/45/45
f 49/49/49 44/44/44 1/1/1
f 44/44/44 43/43/43 15/15/15

