mtllib material.mtl
usemtl yellow
v 1.60353800 -2.42401000 0.00000000
v 1.60353800 -2.42401000 0.00000000
v -0.79646200 -2.42401100 0.00000000
v -0.79646200 -2.42401100 0.00000000
v -0.79646100 -3.62401000 0.00000000
v -0.79646100 -3.62401000 0.00000000
v 0.40353800 -2.42401000 0.00000000
v 0.40353800 -2.42401000 0.00000000
v 0.40353800 -2.42401000 0.00000000
v 0.40353800 -2.42401000 0.00000000
v 0.40353800 -3.62401000 0.00000000
v 0.40353800 -3.62401000 0.00000000
v 1.60353800 -1.22401000 0.00000000
v 1.60353800 -1.22401000 0.00000000
v 0.40353800 -1.22401000 0.00000000
v 0.40353800 -1.22401000 0.00000000
v 0.40353800 -3.62401000 0.60000000
v 0.40353800 -3.62401000 0.60000000
v 0.40353800 -3.62401000 0.60000000
v -0.79646100 -3.62401000 0.60000000
v -0.79646100 -3.62401000 0.60000000
v -0.79646100 -3.62401000 0.60000000
v 0.40353800 -2.42401000 0.60000000
v 0.40353800 -2.42401000 0.60000000
v 0.40353800 -2.42401000 0.60000000
v -0.79646200 -2.42401100 0.60000000
v -0.79646200 -2.42401100 0.60000000
v -0.79646200 -2.42401100 0.60000000
v 1.60353800 -2.42401000 0.60000000
v 1.60353800 -2.42401000 0.60000000
v 1.60353800 -2.42401000 0.60000000
v 0.40353800 -2.42401000 0.60000000
v 0.40353800 -2.42401000 0.60000000
v 0.40353800 -2.42401000 0.60000000
v 1.60353800 -1.22401000 0.60000000
v 1.60353800 -1.22401000 0.60000000
v 1.60353800 -1.22401000 0.60000000
v 0.40353800 -1.22401000 0.60000000
v 0.40353800 -1.22401000 0.60000000
v 0.40353800 -1.22401000 0.60000000
vn -0.00000000 -1.00000000 -0.00000000
vn 1.00000000 -0.00000000 -0.00000000
vn -1.00000000 -0.00000000 -0.00000000
vn -0.00000000 1.00000000 -0.00000000
vn -0.00000000 -1.00000000 -0.00000000
vn -1.00000000 -0.00000000 -0.00000000
vn -1.00000000 -0.00000000 -0.00000000
vn -0.00000000 -1.00000000 -0.00000000
vn 1.00000000 -0.00000000 -0.00000000
vn -0.00000000 1.00000000 -0.00000000
vn -0.00000000 -1.00000000 -0.00000000
vn 1.00000000 -0.00000000 -0.00000000
vn 1.00000000 -0.00000000 -0.00000000
vn -0.00000000 1.00000000 -0.00000000
vn -1.00000000 -0.00000000 -0.00000000
vn -0.00000000 1.00000000 -0.00000000
vn -0.00000000 -1.00000000 -0.00000000
vn -0.00000000 -0.00000000 1.00000000
vn 1.00000000 -0.00000000 -0.00000000
vn -1.00000000 -0.00000000 -0.00000000
vn -0.00000000 -0.00000000 1.00000000
vn -0.00000000 -1.00000000 -0.00000000
vn -0.00000000 1.00000000 -0.00000000
vn -0.00000000 -0.00000000 1.00000000
vn 1.00000000 -0.00000000 -0.00000000
vn -0.00000000 1.00000000 -0.00000000
vn -1.00000000 -0.00000000 -0.00000000
vn -0.00000000 -0.00000000 1.00000000
vn -0.00000000 -1.00000000 -0.00000000
vn 1.00000000 -0.00000000 -0.00000000
vn -0.00000000 -0.00000000 1.00000000
vn -0.00000000 -0.00000000 1.00000000
vn -0.00000000 -1.00000000 -0.00000000
vn -1.00000000 -0.00000000 -0.00000000
vn -0.00000000 1.00000000 -0.00000000
vn -0.00000000 -0.00000000 1.00000000
vn 1.00000000 -0.00000000 -0.00000000
vn -0.00000000 -0.00000000 1.00000000
vn -0.00000000 1.00000000 -0.00000000
vn -1.00000000 -0.00000000 -0.00000000
vt 0.46153800 0.92307700
vt 0.57692300 0.84615400
vt 0.76923000 0.84615400
vt 0.92307500 0.84615400
vt 0.73076900 0.84615400
vt 0.76923000 0.92307700
vt 0.42307600 0.92307700
vt 0.46153800 0.84615400
vt 0.84615300 0.92307700
vt 0.92307500 0.76923100
vt 0.73076900 0.92307700
vt 0.84615300 0.84615400
vt 0.57692300 0.92307700
vt 0.49999900 0.84615400
vt 0.42307600 0.84615400
vt 0.49999900 0.92307700
vt 0.69230700 0.92307700
vt 0.07692300 0.92307700
vt 0.80769200 0.84615400
vt 0.73076900 0.92307700
vt 0.15384600 0.92307700
vt 0.69230700 0.84615400
vt 0.88461400 0.76923100
vt 0.07692300 0.84615400
vt 0.80769200 0.92307700
vt 0.88461400 0.84615400
vt 0.73076900 0.84615400
vt 0.15384600 0.84615400
vt 0.42307600 0.92307700
vt 0.53846100 0.84615400
vt 0.91030600 0.15384600
vt 0.83338300 0.15384600
vt 0.42307600 0.84615400
vt 0.38461500 0.92307700
vt 0.46153800 0.84615400
vt 0.91030600 0.23076900
vt 0.53846100 0.92307700
vt 0.83338300 0.23076900
vt 0.46153800 0.92307700
vt 0.38461500 0.84615400
f 26/26/26 10/10/10 4/4/4
f 34/34/34 15/15/15 7/7/7
f 21/21/21 24/24/24 28/28/28
f 17/17/17 5/5/5 11/11/11
f 25/25/25 12/12/12 9/9/9
f 20/20/20 3/3/3 6/6/6
f 32/32/32 36/36/36 38/38/38
f 29/29/29 8/8/8 1/1/1
f 37/37/37 2/2/2 13/13/13
f 39/39/39 14/14/14 16/16/16
f 26/26/26 23/23/23 10/10/10
f 34/34/34 40/40/40 15/15/15
f 21/21/21 18/18/18 24/24/24
f 17/17/17 22/22/22 5/5/5
f 25/25/25 19/19/19 12/12/12
f 20/20/20 27/27/27 3/3/3
f 32/32/32 31/31/31 36/36/36
f 29/29/29 33/33/33 8/8/8
f 37/37/37 30/30/30 2/2/2
f 39/39/39 35/35/35 14/14/14

