mtllib material.mtl
usemtl blue_floor
v -2.94000000 -6.00000000 0.00000000
v -1.97000000 -6.00000000 0.00000000
v -0.94000000 -6.00000000 0.00000000
v 0.06000000 -6.00000000 0.00000000
v 1.06000000 -6.00000000 0.00000000
v 2.06000000 -6.00000000 0.00000000
v 3.06000000 -6.00000000 0.00000000
v 6.00000000 -2.00000000 0.00000000
v 6.00000000 -1.00000000 0.00000000
v -2.94000000 -4.50000000 0.00000000
v -2.94000000 -4.00000000 0.00000000
v -2.94000000 -3.00000000 0.00000000
v -2.94000000 -2.00000000 0.00000000
v -2.94000000 -1.00000000 0.00000000
v -1.97000000 -5.00000000 0.00000000
v -2.00000000 -4.20000000 0.00000000
v -2.00000000 -3.00000000 0.00000000
v -2.00000000 -1.80000000 0.00000000
v -1.94000000 -1.00000000 0.00000000
v -0.94000000 -5.00000000 0.00000000
v -2.00000000 -2.40000000 0.00000000
v 2.80000000 -3.60000000 0.00000000
v -0.94000000 -1.00000000 0.00000000
v 0.06000000 -5.00000000 0.00000000
v 2.80000000 -2.40000000 0.00000000
v 0.06000000 -1.00000000 0.00000000
v 1.06000000 -5.00000000 0.00000000
v 1.06000000 -1.00000000 0.00000000
v 2.06000000 -5.00000000 0.00000000
v 2.80000000 -4.20000000 0.00000000
v 2.80000000 -3.00000000 0.00000000
v 2.80000000 -1.80000000 0.00000000
v 2.06000000 -1.00000000 0.00000000
v 3.06000000 -5.00000000 0.00000000
v 3.06000000 -4.00000000 0.00000000
v 3.06000000 -3.00000000 0.00000000
v 3.06000000 -2.00000000 0.00000000
v 3.06000000 -1.00000000 0.00000000
v 5.20000000 -1.00000000 0.00000000
v 3.99500000 -6.00000000 0.00000000
v 3.99500000 -5.00000000 0.00000000
v 3.99500000 -4.00000000 0.00000000
v 3.99500000 -3.00000000 0.00000000
v 3.99500000 -2.00000000 0.00000000
v 3.99500000 -1.00000000 0.00000000
v 2.80000000 -1.20000000 0.00000000
v 2.80000000 -4.80000000 0.00000000
v -2.00000000 -1.20000000 0.00000000
v -2.00000000 -4.80000000 0.00000000
v -0.80000000 -1.20000000 0.00000000
v 0.40000000 -1.20000000 0.00000000
v 1.60000000 -1.20000000 0.00000000
v -0.80000000 -4.80000000 0.00000000
v 0.40000000 -4.80000000 0.00000000
v 1.60000000 -4.80000000 0.00000000
v -2.00000000 -3.60000000 0.00000000
v 6.00000000 -1.80000000 0.00000000
v 6.00000000 -1.00000000 0.00000000
v 5.00000000 -1.00000000 0.00000000
v -3.50000000 -6.00000000 0.00000000
v -3.50000000 -1.00000000 0.00000000
v -3.50000000 -2.10000000 0.00000000
v -3.50000000 -3.00000000 0.00000000
v -3.50000000 -4.00000000 0.00000000
v -3.50000000 -4.50000000 0.00000000
v -2.94000000 -0.02500000 0.00000000
v -1.94000000 -0.02500000 0.00000000
v -0.94000000 -0.02500000 0.00000000
v 0.06000000 -0.02500000 0.00000000
v 1.06000000 -0.02500000 0.00000000
v 2.06000000 -0.02500000 0.00000000
v 3.06000000 -0.02500000 0.00000000
v 3.99500000 -0.02500000 0.00000000
v -3.50000000 -0.02500000 0.00000000
v 6.00000000 2.00000000 0.00000000
v 6.00000000 1.00000000 0.00000000
v 5.20000000 1.00000000 0.00000000
v 6.00000000 1.80000000 0.00000000
v 6.00000000 1.00000000 0.00000000
v 5.00000000 1.00000000 0.00000000
v 0.40000000 -5.00000000 0.00000000
v 3.06000000 -4.80000000 0.00000000
v 3.99500000 -4.80000000 0.00000000
v 3.99500000 -4.77000000 0.00000000
v 2.80000000 -4.77000000 0.00000000
v 3.06000000 -4.77000000 0.00000000
v -2.00000000 -6.00000000 0.00000000
v -2.00000000 -5.00000000 0.00000000
v -1.97000000 -4.80000000 0.00000000
v -2.94000000 -1.20000000 0.00000000
v -3.50000000 -1.20000000 0.00000000
v -2.94000000 -1.23000000 0.00000000
v -2.00000000 -1.23000200 0.00000000
v -3.50000000 -1.23000000 0.00000000
v 3.06000000 -1.20000000 0.00000000
v 3.99500000 -1.20000000 0.00000000
v 3.99500000 -1.23000000 0.00000000
v 2.80000000 -1.23000000 0.00000000
v 3.06000000 -1.23000000 0.00000000
v 1.60353800 -2.42401000 0.00000000
v 1.60353800 -2.42401000 0.00000000
v 1.60353800 -2.42401000 0.00000000
v 1.60353800 -2.42401000 0.00000000
v 2.80353900 -2.42401000 0.00000000
v -1.99646200 -3.62401000 0.00000000
v 1.60353900 -3.62401000 0.00000000
v 1.60353900 -3.62401000 0.00000000
v 1.60353900 -3.62401000 0.00000000
v 1.60353900 -3.62401000 0.00000000
v -1.99646200 -2.42401100 0.00000000
v -0.79646200 -2.42401100 0.00000000
v -0.79646200 -2.42401100 0.00000000
v -0.79646200 -2.42401100 0.00000000
v -0.79646200 -2.42401100 0.00000000
v -0.79646100 -3.62401000 0.00000000
v -0.79646100 -3.62401000 0.00000000
v -0.79646100 -3.62401000 0.00000000
v -0.79646100 -3.62401000 0.00000000
v 0.40353800 -2.42401000 0.00000000
v 0.40353800 -2.42401000 0.00000000
v 0.40353800 -2.42401000 0.00000000
v 0.40353800 -2.42401000 0.00000000
v 0.40353800 -3.62401000 0.00000000
v 0.40353800 -3.62401000 0.00000000
v 0.40353800 -3.62401000 0.00000000
v 0.40353800 -3.62401000 0.00000000
v 1.60353800 -1.22401000 0.00000000
v 0.40353800 -1.22401000 0.00000000
v -0.79646200 -1.22401000 0.00000000
v 1.60353900 -4.82401000 0.00000000
v 0.40353900 -4.82401000 0.00000000
v -0.79646100 -4.82401000 0.00000000
v 2.80353900 -3.62401000 0.00000000
v -1.99646200 -2.42401100 0.20000000
v -0.79646200 -2.42401100 0.20000000
v -0.79646200 -2.42401100 0.20000000
v -0.79646200 -1.22401000 0.20000000
v -0.79646100 -4.82401000 0.20000000
v -0.79646100 -3.62401000 0.20000000
v -0.79646100 -3.62401000 0.20000000
v -1.99646200 -3.62401000 0.20000000
v -0.79646100 -3.62401000 0.40000000
v -0.79646200 -2.42401100 0.40000000
v 0.40353800 -2.42401000 0.40000000
v 0.40353800 -2.42401000 0.40000000
v -0.79646200 -2.42401100 0.40000000
v 0.40353800 -1.22401000 0.40000000
v 0.40353800 -3.62401000 0.40000000
v -0.79646100 -3.62401000 0.40000000
v 1.60353800 -2.42401000 0.40000000
v 0.40353800 -3.62401000 0.40000000
v 0.40353800 -2.42401000 0.40000000
v 0.40353800 -2.42401000 0.40000000
v 1.60353900 -4.82401000 0.20000000
v 1.60353900 -3.62401000 0.20000000
v 1.60353900 -3.62401000 0.20000000
v 0.40353800 -3.62401000 0.20000000
v 0.40353800 -3.62401000 0.20000000
v 0.40353900 -4.82401000 0.20000000
v 2.80353900 -3.62401000 0.20000000
v 1.60353900 -3.62401000 0.20000000
v 1.60353900 -3.62401000 0.20000000
v 1.60353800 -2.42401000 0.20000000
v 1.60353800 -2.42401000 0.20000000
v 2.80353900 -2.42401000 0.20000000
v 1.60353800 -2.42401000 0.40000000
v 1.60353800 -1.22401000 0.40000000
vn -0.00000000 -0.00000000 1.00000000
vn -0.00000000 -0.00000000 1.00000000
vn -0.00000000 -0.00000000 1.00000000
vn -0.00000000 -0.00000000 1.00000000
vn -0.00000000 -0.00000000 1.00000000
vn -0.00000000 -0.00000000 1.00000000
vn -0.00000000 -0.00000000 1.00000000
vn -0.00000000 -0.00000000 1.00000000
vn -0.00000000 -0.00000000 1.00000000
vn -0.00000000 -0.00000000 1.00000000
vn -0.00000000 -0.00000000 1.00000000
vn -0.00000000 -0.00000000 1.00000000
vn -0.00000000 -0.00000000 1.00000000
vn -0.00000000 -0.00000000 1.00000000
vn -0.00000000 -0.00000000 1.00000000
vn -0.00000000 -0.00000000 1.00000000
vn -0.00000000 -0.00000000 1.00000000
vn -0.00000000 -0.00000000 1.00000000
vn -0.00000000 -0.00000000 1.00000000
vn -0.00000000 -0.00000000 1.00000000
vn -0.00000000 -0.00000000 1.00000000
vn -0.00000000 -0.00000000 1.00000000
vn -0.00000000 -0.00000000 1.00000000
vn -0.00000000 -0.00000000 1.00000000
vn -0.00000000 -0.00000000 1.00000000
vn -0.00000000 -0.00000000 1.00000000
vn -0.00000000 -0.00000000 1.00000000
vn -0.00000000 -0.00000000 1.00000000
vn -0.00000000 -0.00000000 1.00000000
vn -0.00000000 -0.00000000 1.00000000
vn -0.00000000 -0.00000000 1.00000000
vn -0.00000000 -0.00000000 1.00000000
vn -0.00000000 -0.00000000 1.00000000
vn -0.00000000 -0.00000000 1.00000000
vn -0.00000000 -0.00000000 1.00000000
vn -0.00000000 -0.00000000 1.00000000
vn -0.00000000 -0.00000000 1.00000000
vn -0.00000000 -0.00000000 1.00000000
vn -0.00000000 -0.00000000 1.00000000
vn -0.00000000 -0.00000000 1.00000000
vn -0.00000000 -0.00000000 1.00000000
vn -0.00000000 -0.00000000 1.00000000
vn -0.00000000 -0.00000000 1.00000000
vn -0.00000000 -0.00000000 1.00000000
vn -0.00000000 -0.00000000 1.00000000
vn -0.00000000 -0.00000000 1.00000000
vn -0.00000000 -0.00000000 1.00000000
vn -0.00000000 -0.00000000 1.00000000
vn -0.00000000 -0.00000000 1.00000000
vn -0.00000000 -0.00000000 1.00000000
vn -0.00000000 -0.00000000 1.00000000
vn -0.00000000 -0.00000000 1.00000000
vn -0.00000000 -0.00000000 1.00000000
vn -0.00000000 -0.00000000 1.00000000
vn -0.00000000 -0.00000000 1.00000000
vn -0.00000000 -0.00000000 1.00000000
vn -0.00000000 -0.00000000 1.00000000
vn -0.00000000 -0.00000000 1.00000000
vn -0.00000000 -0.00000000 1.00000000
vn -0.00000000 -0.00000000 1.00000000
vn -0.00000000 -0.00000000 1.00000000
vn -0.00000000 -0.00000000 1.00000000
vn -0.00000000 -0.00000000 1.00000000
vn -0.00000000 -0.00000000 1.00000000
vn -0.00000000 -0.00000000 1.00000000
vn -0.00000000 -0.00000000 1.00000000
vn -0.00000000 -0.00000000 1.00000000
vn -0.00000000 -0.00000000 1.00000000
vn -0.00000000 -0.00000000 1.00000000
vn -0.00000000 -0.00000000 1.00000000
vn -0.00000000 -0.00000000 1.00000000
vn -0.00000000 -0.00000000 1.00000000
vn -0.00000000 -0.00000000 1.00000000
vn -0.00000000 -0.00000000 1.00000000
vn -0.00000000 -0.00000000 1.00000000
vn -0.00000000 -0.00000000 1.00000000
vn -0.00000000 -0.00000000 1.00000000
vn -0.00000000 -0.00000000 1.00000000
vn -0.00000000 -0.00000000 1.00000000
vn -0.00000000 -0.00000000 1.00000000
vn -0.00000000 -0.00000000 1.00000000
vn -0.00000000 -0.00000000 1.00000000
vn -0.00000000 -0.00000000 1.00000000
vn -0.00000000 -0.00000000 1.00000000
vn -0.00000000 -0.00000000 1.00000000
vn -0.00000000 -0.00000000 1.00000000
vn -0.00000000 -0.00000000 1.00000000
vn -0.00000000 -0.00000000 1.00000000
vn -0.00000000 -0.00000000 1.00000000
vn -0.00000000 -0.00000000 1.00000000
vn -0.00000000 -0.00000000 1.00000000
vn -0.00000000 -0.00000000 1.00000000
vn -0.00000000 -0.00000000 1.00000000
vn -0.00000000 -0.00000000 1.00000000
vn -0.00000000 -0.00000000 1.00000000
vn -0.00000000 -0.00000000 1.00000000
vn -0.00000000 -0.00000000 1.00000000
vn -0.00000000 -0.00000000 1.00000000
vn -0.00000000 -0.00000000 1.00000000
vn -1.00000000 -0.00000000 -0.00000000
vn -0.00000000 1.00000000 -0.00000000
vn -0.00000000 1.00000000 -0.00000000
vn -1.00000000 -0.00000000 -0.00000000
vn -0.00000000 1.00000000 -0.00000000
vn -0.00000000 1.00000000 -0.00000000
vn -1.00000000 -0.00000000 -0.00000000
vn -0.00000000 1.00000000 -0.00000000
vn -0.00000000 -1.00000000 -0.00000000
vn 1.00000000 -0.00000000 -0.00000000
vn -0.00000000 -1.00000000 -0.00000000
vn -0.00000000 -1.00000000 -0.00000000
vn -0.00000000 -1.00000000 -0.00000000
vn 1.00000000 -0.00000000 -0.00000000
vn 1.00000000 -0.00000000 -0.00000000
vn 1.00000000 -0.00000000 -0.00000000
vn 1.00000000 -0.00000000 -0.00000000
vn -0.00000000 1.00000000 -0.00000000
vn -0.00000000 1.00000000 -0.00000000
vn -1.00000000 -0.00000000 -0.00000000
vn -0.00000000 1.00000000 -0.00000000
vn 1.00000000 -0.00000000 -0.00000000
vn -0.00000000 -1.00000000 -0.00000000
vn -1.00000000 -0.00000000 -0.00000000
vn -1.00000000 -0.00000000 -0.00000000
vn -0.00000000 1.00000000 -0.00000000
vn -0.00000000 1.00000000 -0.00000000
vn -1.00000000 -0.00000000 -0.00000000
vn 1.00000000 -0.00000000 -0.00000000
vn 1.00000000 -0.00000000 -0.00000000
vn 1.00000000 -0.00000000 -0.00000000
vn -1.00000000 -0.00000000 -0.00000000
vn 1.00000000 -0.00000000 -0.00000000
vn -0.00000000 -1.00000000 -0.00000000
vn -0.00000000 -1.00000000 -0.00000000
vn 1.00000000 -0.00000000 -0.00000000
vn -0.00000000 -1.00000000 -0.00000000
vn 1.00000000 -0.00000000 -0.00000000
vn 1.00000000 -0.00000000 -0.00000000
vn -0.00000000 1.00000000 -0.00000000
vn 1.00000000 -0.00000000 -0.00000000
vn -0.00000000 1.00000000 -0.00000000
vn 1.00000000 -0.00000000 -0.00000000
vn 1.00000000 -0.00000000 -0.00000000
vn -0.00000000 -1.00000000 -0.00000000
vn 1.00000000 -0.00000000 -0.00000000
vn -0.00000000 -1.00000000 -0.00000000
vn 1.00000000 -0.00000000 -0.00000000
vn -0.00000000 1.00000000 -0.00000000
vn -0.00000000 1.00000000 -0.00000000
vn -0.00000000 1.00000000 -0.00000000
vn -1.00000000 -0.00000000 -0.00000000
vn -1.00000000 -0.00000000 -0.00000000
vn -0.00000000 1.00000000 -0.00000000
vn 1.00000000 -0.00000000 -0.00000000
vn 1.00000000 -0.00000000 -0.00000000
vn -0.00000000 1.00000000 -0.00000000
vn -0.00000000 1.00000000 -0.00000000
vn -1.00000000 -0.00000000 -0.00000000
vn -1.00000000 -0.00000000 -0.00000000
vn -0.00000000 -1.00000000 -0.00000000
vn -0.00000000 -1.00000000 -0.00000000
vn -1.00000000 -0.00000000 -0.00000000
vn -1.00000000 -0.00000000 -0.00000000
vn -0.00000000 1.00000000 -0.00000000
vn -0.00000000 1.00000000 -0.00000000
vn -1.00000000 -0.00000000 -0.00000000
vn -1.00000000 -0.00000000 -0.00000000
vt 0.03589700 0.00000000
vt 0.09807700 0.00000000
vt 0.16410200 0.00000000
vt 0.22820500 0.00000000
vt 0.29230700 0.00000000
vt 0.35640900 0.00000000
vt 0.42051200 0.00000000
vt 0.15384600 0.76923100
vt 0.15384600 0.76923100
vt 0.03589700 0.09615400
vt 0.03589700 0.12820500
vt 0.03589700 0.19230800
vt 0.03589700 0.25641000
vt 0.03589700 0.32051300
vt 0.09807700 0.06410300
vt 0.09615400 0.11538500
vt 0.09615400 0.19230800
vt 0.09615400 0.26923100
vt 0.10000000 0.32051300
vt 0.16410200 0.06410300
vt 0.09615400 0.23076900
vt 0.40384500 0.15384600
vt 0.16410200 0.32051300
vt 0.22820500 0.06410300
vt 0.40384500 0.23076900
vt 0.22820500 0.32051300
vt 0.29230700 0.06410300
vt 0.29230700 0.32051300
vt 0.35640900 0.06410300
vt 0.40384500 0.11538500
vt 0.40384500 0.19230800
vt 0.40384500 0.26923100
vt 0.35640900 0.32051300
vt 0.42051200 0.06410300
vt 0.42051200 0.12820500
vt 0.42051200 0.19230800
vt 0.42051200 0.25641000
vt 0.42051200 0.32051300
vt 0.15384600 0.76923100
vt 0.48044800 0.00000000
vt 0.48044800 0.06410300
vt 0.48044800 0.12820500
vt 0.48044800 0.19230800
vt 0.48044800 0.25641000
vt 0.48044800 0.32051300
vt 0.40384500 0.30769200
vt 0.40384500 0.07692300
vt 0.09615400 0.30769200
vt 0.09615400 0.07692300
vt 0.17307700 0.30769200
vt 0.24999900 0.30769200
vt 0.32692200 0.30769200
vt 0.17307700 0.07692300
vt 0.24999900 0.07692300
vt 0.32692200 0.07692300
vt 0.09615400 0.15384600
vt 0.15384600 0.76923100
vt 0.15384600 0.76923100
vt 0.15384600 0.76923100
vt 0.00000000 0.00000000
vt 0.00000000 0.32051300
vt 0.00000000 0.25000000
vt 0.00000000 0.19230800
vt 0.00000000 0.12820500
vt 0.00000000 0.09615400
vt 0.03589700 0.38301300
vt 0.10000000 0.38301300
vt 0.16410200 0.38301300
vt 0.22820500 0.38301300
vt 0.29230700 0.38301300
vt 0.35640900 0.38301300
vt 0.42051200 0.38301300
vt 0.48044800 0.38301300
vt 0.00000000 0.38301300
vt 0.15384600 0.76923100
vt 0.15384600 0.76923100
vt 0.15384600 0.76923100
vt 0.15384600 0.76923100
vt 0.15384600 0.76923100
vt 0.15384600 0.76923100
vt 0.24999900 0.06410300
vt 0.42051200 0.07692300
vt 0.48044800 0.07692300
vt 0.48044800 0.07884600
vt 0.40384500 0.07884600
vt 0.42051200 0.07884600
vt 0.09615400 0.00000000
vt 0.09615400 0.06410300
vt 0.09807700 0.07692300
vt 0.03589700 0.30769200
vt 0.00000000 0.30769200
vt 0.03589700 0.30576900
vt 0.09615400 0.30576900
vt 0.00000000 0.30576900
vt 0.42051200 0.30769200
vt 0.48044800 0.30769200
vt 0.48044800 0.30576900
vt 0.40384500 0.30576900
vt 0.42051200 0.30576900
vt 0.98477000 0.07692300
vt 0.53846200 1.00000000
vt 0.05128200 0.92307700
vt 0.80769200 0.92307700
vt 0.53846200 0.92307700
vt 0.75641000 1.00000000
vt 0.80769200 1.00000000
vt 0.78205100 0.92307700
vt 0.50000000 0.92307700
vt 0.61538500 1.00000000
vt 0.99999800 0.76923100
vt 0.23076900 0.92307700
vt 0.99999800 0.84615400
vt 0.64102600 0.92307700
vt 0.48717900 1.00000000
vt 0.60256400 1.00000000
vt 0.48717900 0.92307700
vt 0.28205100 1.00000000
vt 0.75641000 0.92307700
vt 0.38461500 0.92307700
vt 0.05128200 1.00000000
vt 0.98722900 0.29951600
vt 0.23076900 1.00000000
vt 0.51282100 0.92307700
vt 0.38461500 1.00000000
vt 0.28205100 0.92307700
vt 0.78205100 1.00000000
vt 0.98477000 0.00000000
vt 0.98722900 0.37643900
vt 0.64102600 1.00000000
vt 0.61538500 0.92307700
vt 0.51282100 1.00000000
vt 0.60256400 0.92307700
vt 0.50000000 1.00000000
vt 0.98717800 0.76923100
vt 0.62820500 0.92307700
vt 0.98717800 0.84615400
vt 0.62820500 1.00000000
vt 0.58974400 0.92307700
vt 0.74359000 0.92307700
vt 0.58974400 1.00000000
vt 0.74359000 1.00000000
vt 0.46153800 0.92307700
vt 0.46153800 1.00000000
vt 0.20512800 1.00000000
vt 0.96158800 0.29951600
vt 0.20512800 0.92307700
vt 0.96158800 0.37643900
vt 0.25641000 0.92307700
vt 0.25641000 1.00000000
vt 0.02564100 0.92307700
vt 0.35897400 1.00000000
vt 0.35897400 0.92307700
vt 0.02564100 1.00000000
vt 0.60256400 0.92307700
vt 0.60256400 1.00000000
vt 0.76923100 0.92307700
vt 0.76923100 1.00000000
vt 0.50000000 0.92307700
vt 0.50000000 1.00000000
vt 0.48717900 1.00000000
vt 0.48717900 0.92307700
vt 0.79487200 1.00000000
vt 0.79487200 0.92307700
vt 0.52564100 1.00000000
vt 0.52564100 0.92307700
vt 0.95912900 0.07692300
vt 0.95912900 0.00000000
f 60/60/60 10/10/10 65/65/65
f 1/1/1 88/88/88 10/10/10
f 2/2/2 20/20/20 15/15/15
f 3/3/3 24/24/24 20/20/20
f 4/4/4 27/27/27 81/81/81
f 5/5/5 29/29/29 27/27/27
f 6/6/6 34/34/34 29/29/29
f 33/33/33 72/72/72 71/71/71
f 46/46/46 38/38/38 33/33/33
f 25/25/25 36/36/36 37/37/37
f 22/22/22 35/35/35 36/36/36
f 30/30/30 86/86/86 35/35/35
f 28/28/28 71/71/71 70/70/70
f 52/52/52 33/33/33 28/28/28
f 26/26/26 70/70/70 69/69/69
f 51/51/51 28/28/28 26/26/26
f 23/23/23 69/69/69 68/68/68
f 50/50/50 26/26/26 23/23/23
f 19/19/19 68/68/68 67/67/67
f 48/48/48 23/23/23 19/19/19
f 14/14/14 67/67/67 66/66/66
f 14/14/14 48/48/48 19/19/19
f 12/12/12 21/21/21 18/18/18
f 11/11/11 56/56/56 17/17/17
f 10/10/10 49/49/49 16/16/16
f 61/61/61 66/66/66 74/74/74
f 91/91/91 14/14/14 61/61/61
f 62/62/62 12/12/12 13/13/13
f 64/64/64 12/12/12 63/63/63
f 65/65/65 11/11/11 64/64/64
f 7/7/7 41/41/41 34/34/34
f 38/38/38 73/73/73 72/72/72
f 86/86/86 42/42/42 35/35/35
f 35/35/35 43/43/43 36/36/36
f 36/36/36 44/44/44 37/37/37
f 95/95/95 45/45/45 38/38/38
f 89/89/89 20/20/20 53/53/53
f 55/55/55 29/29/29 47/47/47
f 54/54/54 27/27/27 55/55/55
f 53/53/53 24/24/24 54/54/54
f 58/58/58 8/8/8 9/9/9
f 39/39/39 9/9/9 59/59/59
f 79/79/79 75/75/75 78/78/78
f 77/77/77 76/76/76 79/79/79
f 81/81/81 54/54/54 24/24/24
f 47/47/47 34/34/34 82/82/82
f 82/82/82 41/41/41 83/83/83
f 92/92/92 18/18/18 93/93/93
f 94/94/94 13/13/13 92/92/92
f 97/97/97 37/37/37 44/44/44
f 99/99/99 32/32/32 37/37/37
f 60/60/60 1/1/1 10/10/10
f 1/1/1 87/87/87 88/88/88
f 2/2/2 3/3/3 20/20/20
f 3/3/3 4/4/4 24/24/24
f 81/81/81 24/24/24 4/4/4
f 4/4/4 5/5/5 27/27/27
f 5/5/5 6/6/6 29/29/29
f 6/6/6 7/7/7 34/34/34
f 33/33/33 38/38/38 72/72/72
f 46/46/46 95/95/95 38/38/38
f 37/37/37 32/32/32 25/25/25
f 25/25/25 31/31/31 36/36/36
f 36/36/36 31/31/31 22/22/22
f 22/22/22 30/30/30 35/35/35
f 30/30/30 85/85/85 86/86/86
f 28/28/28 33/33/33 71/71/71
f 52/52/52 46/46/46 33/33/33
f 26/26/26 28/28/28 70/70/70
f 51/51/51 52/52/52 28/28/28
f 23/23/23 26/26/26 69/69/69
f 50/50/50 51/51/51 26/26/26
f 19/19/19 23/23/23 68/68/68
f 48/48/48 50/50/50 23/23/23
f 14/14/14 19/19/19 67/67/67
f 14/14/14 90/90/90 48/48/48
f 18/18/18 13/13/13 12/12/12
f 12/12/12 17/17/17 21/21/21
f 17/17/17 12/12/12 11/11/11
f 11/11/11 16/16/16 56/56/56
f 16/16/16 11/11/11 10/10/10
f 10/10/10 88/88/88 49/49/49
f 61/61/61 14/14/14 66/66/66
f 91/91/91 90/90/90 14/14/14
f 62/62/62 63/63/63 12/12/12
f 64/64/64 11/11/11 12/12/12
f 65/65/65 10/10/10 11/11/11
f 7/7/7 40/40/40 41/41/41
f 38/38/38 45/45/45 73/73/73
f 86/86/86 84/84/84 42/42/42
f 35/35/35 42/42/42 43/43/43
f 36/36/36 43/43/43 44/44/44
f 95/95/95 96/96/96 45/45/45
f 89/89/89 15/15/15 20/20/20
f 55/55/55 27/27/27 29/29/29
f 54/54/54 81/81/81 27/27/27
f 53/53/53 20/20/20 24/24/24
f 58/58/58 57/57/57 8/8/8
f 39/39/39 58/58/58 9/9/9
f 79/79/79 76/76/76 75/75/75
f 77/77/77 80/80/80 76/76/76
f 47/47/47 29/29/29 34/34/34
f 82/82/82 34/34/34 41/41/41
f 92/92/92 13/13/13 18/18/18
f 94/94/94 62/62/62 13/13/13
f 97/97/97 99/99/99 37/37/37
f 99/99/99 98/98/98 32/32/32
f 136/136/136 110/110/110 112/112/112
f 160/160/160 108/108/108 133/133/133
f 147/147/147 121/121/121 128/128/128
f 159/159/159 123/123/123 131/131/131
f 137/137/137 113/113/113 129/129/129
f 140/140/140 132/132/132 115/115/115
f 141/141/141 118/118/118 105/105/105
f 143/143/143 116/116/116 114/114/114
f 144/144/144 111/111/111 122/122/122
f 149/149/149 125/125/125 117/117/117
f 153/153/153 102/102/102 120/120/120
f 151/151/151 119/119/119 124/124/124
f 155/155/155 130/130/130 109/109/109
f 157/157/157 107/107/107 126/126/126
f 162/162/162 103/103/103 106/106/106
f 164/164/164 104/104/104 101/101/101
f 166/166/166 127/127/127 100/100/100
f 136/136/136 134/134/134 110/110/110
f 160/160/160 161/161/161 108/108/108
f 147/147/147 145/145/145 121/121/121
f 159/159/159 158/158/158 123/123/123
f 137/137/137 135/135/135 113/113/113
f 140/140/140 138/138/138 132/132/132
f 141/141/141 139/139/139 118/118/118
f 143/143/143 142/142/142 116/116/116
f 144/144/144 146/146/146 111/111/111
f 149/149/149 148/148/148 125/125/125
f 153/153/153 150/150/150 102/102/102
f 151/151/151 152/152/152 119/119/119
f 155/155/155 154/154/154 130/130/130
f 157/157/157 156/156/156 107/107/107
f 162/162/162 163/163/163 103/103/103
f 164/164/164 165/165/165 104/104/104
f 166/166/166 167/167/167 127/127/127

