mtllib material.mtl
usemtl green
v 2.80000100 -4.22500000 0.00000000
v 2.80000000 -1.82500000 0.00000000
v 1.60000000 -2.42500000 0.00000000
v 1.60000000 -2.42500000 0.00000000
v 2.80000000 -2.42500000 0.00000000
v 2.80000000 -2.42500000 0.00000000
v -2.00000000 -3.62500000 0.00000000
v -2.00000000 -3.62500000 0.00000000
v 1.60000000 -3.62500000 0.00000000
v 1.60000000 -3.62500000 0.00000000
v 1.60000000 -3.62500000 0.00000000
v 1.60000000 -3.62500000 0.00000000
v -2.00000000 -2.42500000 0.00000000
v -2.00000000 -2.42500000 0.00000000
v -0.80000000 -2.42500000 0.00000000
v -0.80000000 -2.42500000 0.00000000
v -0.80000000 -3.62500000 0.00000000
v -0.80000000 -3.62500000 0.00000000
v 0.40000000 -3.62500000 0.00000000
v 0.40000000 -3.62500000 0.00000000
v -2.00000000 -3.02500000 0.00000000
v 2.80000000 -1.22500000 0.00000000
v 2.80000000 -1.22500000 0.00000000
v 2.80000100 -4.82500000 0.00000000
v 2.80000100 -4.82500000 0.00000000
v 1.60000000 -1.22500000 0.00000000
v 0.40000000 -1.22500000 0.00000000
v -0.80000000 -1.22500000 0.00000000
v -0.80000000 -1.22500000 0.00000000
v 1.60000000 -4.82500000 0.00000000
v 1.60000000 -4.82500000 0.00000000
v 0.40000000 -4.82500000 0.00000000
v 0.40000000 -4.82500000 0.00000000
v -0.79999900 -4.82500000 0.00000000
v -0.79999900 -4.82500000 0.00000000
v 2.80000000 -3.62500000 0.00000000
v 2.80000000 -3.62500000 0.00000000
v -0.80000000 -3.62500000 0.40000000
v -0.80000000 -3.62500000 0.40000000
v -0.80000000 -2.42500000 0.40000000
v -0.80000000 -2.42500000 0.40000000
v -2.00000000 -3.62500000 0.40000000
v -2.00000000 -3.62500000 0.40000000
v -2.00000000 -3.62500000 0.40000000
v -2.00000000 -3.02500000 0.40000000
v -2.00000000 -3.02500000 0.40000000
v -2.00000000 -2.42500000 0.40000000
v -2.00000000 -2.42500000 0.40000000
v -2.00000000 -2.42500000 0.40000000
v 0.40000000 -2.42500000 0.40000000
v -0.80000000 -2.42500000 0.40000000
v -0.80000000 -2.42500000 0.40000000
v 0.40000000 -1.22500000 0.40000000
v 0.40000000 -1.22500000 0.40000000
v -0.80000000 -1.22500000 0.40000000
v -0.80000000 -1.22500000 0.40000000
v -0.80000000 -1.22500000 0.40000000
v 0.40000000 -3.62500000 0.40000000
v 0.40000000 -3.62500000 0.40000000
v -0.80000000 -3.62500000 0.40000000
v -0.80000000 -3.62500000 0.40000000
v -0.79999900 -4.82500000 0.40000000
v -0.79999900 -4.82500000 0.40000000
v -0.79999900 -4.82500000 0.40000000
v 0.40000000 -4.82500000 0.40000000
v 0.40000000 -4.82500000 0.40000000
v 0.40000000 -4.82500000 0.40000000
v 1.60000000 -3.62500000 0.40000000
v 1.60000000 -3.62500000 0.40000000
v 1.60000000 -3.62500000 0.40000000
v 1.60000000 -2.42500000 0.40000000
v 1.60000000 -2.42500000 0.40000000
v 0.40000000 -3.62500000 0.40000000
v 0.40000000 -3.62500000 0.40000000
v 0.40000000 -2.42500000 0.40000000
v 2.80000100 -4.82500000 0.40000000
v 2.80000100 -4.82500000 0.40000000
v 2.80000100 -4.82500000 0.40000000
v 2.80000100 -4.22500000 0.40000000
v 2.80000100 -4.22500000 0.40000000
v 1.60000000 -4.82500000 0.40000000
v 1.60000000 -4.82500000 0.40000000
v 1.60000000 -4.82500000 0.40000000
v 1.60000000 -3.62500000 0.40000000
v 1.60000000 -3.62500000 0.40000000
v 1.60000000 -3.62500000 0.40000000
v 2.80000000 -3.62500000 0.40000000
v 2.80000000 -3.62500000 0.40000000
v 2.80000000 -3.62500000 0.40000000
v 2.80000000 -2.42500000 0.40000000
v 2.80000000 -2.42500000 0.40000000
v 2.80000000 -2.42500000 0.40000000
v 2.80000000 -1.82500000 0.40000000
v 2.80000000 -1.82500000 0.40000000
v 1.60000000 -2.42500000 0.40000000
v 1.60000000 -2.42500000 0.40000000
v 2.80000000 -1.22500000 0.40000000
v 2.80000000 -1.22500000 0.40000000
v 2.80000000 -1.22500000 0.40000000
v 1.60000000 -1.22500000 0.40000000
v 1.60000000 -1.22500000 0.40000000
v 2.80000000 -1.32232300 0.40000000
v 2.80000000 -1.32232300 0.40000000
v 2.80000000 -1.25500000 0.00000000
v 2.77000000 -4.82500000 0.00000000
vn 1.00000000 -0.00000000 -0.00000000
vn 1.00000000 -0.00000000 -0.00000000
vn -0.00000000 -1.00000000 -0.00000000
vn 1.00000000 -0.00000000 -0.00000000
vn 1.00000000 -0.00000000 -0.00000000
vn -0.00000000 -1.00000000 -0.00000000
vn -0.00000000 -1.00000000 -0.00000000
vn -1.00000000 -0.00000000 -0.00000000
vn -0.00000000 -1.00000000 -0.00000000
vn 1.00000000 -0.00000000 -0.00000000
vn -1.00000000 -0.00000000 -0.00000000
vn -0.00000000 1.00000000 -0.00000000
vn -0.00000000 1.00000000 -0.00000000
vn -1.00000000 -0.00000000 -0.00000000
vn -1.00000000 -0.00000000 -0.00000000
vn -0.00000000 1.00000000 -0.00000000
vn -0.00000000 -1.00000000 -0.00000000
vn -1.00000000 -0.00000000 -0.00000000
vn 1.00000000 -0.00000000 -0.00000000
vn -0.00000000 -1.00000000 -0.00000000
vn -1.00000000 -0.00000000 -0.00000000
vn -0.00000000 1.00000000 -0.00000000
vn 1.00000000 -0.00000000 -0.00000000
vn -0.00000000 -1.00000000 -0.00000000
vn 1.00000000 -0.00000000 -0.00000000
vn -0.00000000 1.00000000 -0.00000000
vn -0.00000000 1.00000000 -0.00000000
vn -1.00000000 -0.00000000 -0.00000000
vn -0.00000000 1.00000000 -0.00000000
vn -1.00000000 -0.00000000 -0.00000000
vn -0.00000000 -1.00000000 -0.00000000
vn 1.00000000 -0.00000000 -0.00000000
vn -0.00000000 -1.00000000 -0.00000000
vn -0.00000000 -1.00000000 -0.00000000
vn -1.00000000 -0.00000000 -0.00000000
vn -0.00000000 1.00000000 -0.00000000
vn 1.00000000 -0.00000000 -0.00000000
vn -0.00000000 -0.00000000 1.00000000
vn -0.00000000 -1.00000000 -0.00000000
vn -0.00000000 1.00000000 -0.00000000
vn -0.00000000 -0.00000000 1.00000000
vn -0.00000000 -1.00000000 -0.00000000
vn -0.00000000 -0.00000000 1.00000000
vn -1.00000000 -0.00000000 -0.00000000
vn -1.00000000 -0.00000000 -0.00000000
vn -0.00000000 -0.00000000 1.00000000
vn -0.00000000 1.00000000 -0.00000000
vn -1.00000000 -0.00000000 -0.00000000
vn -0.00000000 -0.00000000 1.00000000
vn -0.00000000 -0.00000000 1.00000000
vn -1.00000000 -0.00000000 -0.00000000
vn -0.00000000 -0.00000000 1.00000000
vn -0.00000000 -0.00000000 1.00000000
vn -0.00000000 1.00000000 -0.00000000
vn -0.00000000 1.00000000 -0.00000000
vn -0.00000000 -0.00000000 1.00000000
vn -1.00000000 -0.00000000 -0.00000000
vn -0.00000000 -0.00000000 1.00000000
vn 1.00000000 -0.00000000 -0.00000000
vn -1.00000000 -0.00000000 -0.00000000
vn -0.00000000 -0.00000000 1.00000000
vn -0.00000000 -1.00000000 -0.00000000
vn -1.00000000 -0.00000000 -0.00000000
vn -0.00000000 -0.00000000 1.00000000
vn -0.00000000 -1.00000000 -0.00000000
vn 1.00000000 -0.00000000 -0.00000000
vn -0.00000000 -0.00000000 1.00000000
vn -0.00000000 -0.00000000 1.00000000
vn 1.00000000 -0.00000000 -0.00000000
vn -0.00000000 -1.00000000 -0.00000000
vn 1.00000000 -0.00000000 -0.00000000
vn -0.00000000 -0.00000000 1.00000000
vn -0.00000000 -0.00000000 1.00000000
vn -0.00000000 -1.00000000 -0.00000000
vn -0.00000000 -0.00000000 1.00000000
vn -0.00000000 -1.00000000 -0.00000000
vn -0.00000000 -0.00000000 1.00000000
vn 1.00000000 -0.00000000 -0.00000000
vn 1.00000000 -0.00000000 -0.00000000
vn -0.00000000 -0.00000000 1.00000000
vn -1.00000000 -0.00000000 -0.00000000
vn -0.00000000 -1.00000000 -0.00000000
vn -0.00000000 -0.00000000 1.00000000
vn -1.00000000 -0.00000000 -0.00000000
vn -0.00000000 1.00000000 -0.00000000
vn -0.00000000 -0.00000000 1.00000000
vn -0.00000000 -0.00000000 1.00000000
vn -0.00000000 1.00000000 -0.00000000
vn 1.00000000 -0.00000000 -0.00000000
vn 1.00000000 -0.00000000 -0.00000000
vn -0.00000000 -1.00000000 -0.00000000
vn -0.00000000 -0.00000000 1.00000000
vn -0.00000000 -0.00000000 1.00000000
vn 1.00000000 -0.00000000 -0.00000000
vn -0.00000000 -1.00000000 -0.00000000
vn -0.00000000 -0.00000000 1.00000000
vn 1.00000000 -0.00000000 -0.00000000
vn -0.00000000 1.00000000 -0.00000000
vn -0.00000000 -0.00000000 1.00000000
vn -0.00000000 1.00000000 -0.00000000
vn -0.00000000 -0.00000000 1.00000000
vn -0.00000000 -0.00000000 1.00000000
vn 1.00000000 -0.00000000 -0.00000000
vn 1.00000000 -0.00000000 -0.00000000
vn -0.00000000 -1.00000000 -0.00000000
vt 0.97435700 0.80769200
vt 0.98722900 0.41490100
vt 0.96045400 0.21232700
vt 0.46153800 1.00000000
vt 0.98722900 0.37643900
vt 0.96045400 0.28925100
vt 0.02564100 0.92307700
vt 0.35897400 1.00000000
vt 0.07692300 1.00000000
vt 0.46153800 0.92307700
vt 0.97322500 0.84615400
vt 0.94758400 0.92307700
vt 0.99886600 0.92307700
vt 0.35897400 0.92307700
vt 0.96158800 0.68413200
vt 0.99886600 0.84615400
vt 0.02564100 1.00000000
vt 0.95912900 0.00000000
vt 0.96158800 0.76105500
vt 0.07692300 0.92307700
vt 0.35897400 0.96153800
vt 0.94871600 0.76923100
vt 0.98722900 0.45336300
vt 0.95912900 0.15384600
vt 0.97435700 0.76923100
vt 0.94871600 0.84615400
vt 0.25641000 0.92307700
vt 0.96158800 0.60720900
vt 0.25641000 1.00000000
vt 0.97322500 0.92307700
vt 0.95912900 0.07692300
vt 0.96158800 0.68413200
vt 0.20512800 1.00000000
vt 0.20512800 0.92307700
vt 0.95912900 0.07692300
vt 0.94758400 0.84615400
vt 0.97435700 0.84615400
vt 0.00000000 0.92307700
vt 0.00000000 1.00000000
vt 0.97322500 0.84615400
vt 0.00000000 0.84615400
vt 0.00000000 0.92307700
vt 0.07692300 0.92307700
vt 0.33333300 1.00000000
vt 0.33333300 0.96153800
vt 0.07692300 0.88461500
vt 0.97322500 0.92307700
vt 0.33333300 0.92307700
vt 0.07692300 0.84615400
vt 0.84615200 0.76923100
vt 0.93594700 0.68413200
vt 0.76922900 0.76923100
vt 0.84615200 0.84615400
vt 0.23076900 0.92307700
vt 0.23076900 1.00000000
vt 0.76922900 0.84615400
vt 0.93594700 0.60720900
vt 0.38461500 0.84615400
vt 0.93594700 0.76105500
vt 0.93348800 0.00000000
vt 0.30769200 0.84615400
vt 0.17948700 0.92307700
vt 0.93348800 0.07692300
vt 0.30769200 0.76923100
vt 0.17948700 1.00000000
vt 0.93594700 0.68413200
vt 0.38461500 0.76923100
vt 0.23076900 0.84615400
vt 0.43589700 0.92307700
vt 0.05128200 1.00000000
vt 0.43589700 1.00000000
vt 0.23076900 0.92307700
vt 0.15384600 0.84615400
vt 0.05128200 0.92307700
vt 0.15384600 0.92307700
vt 0.93348800 0.15384600
vt 0.07692300 0.84615400
vt 0.94871600 0.76923100
vt 0.94871600 0.80769200
vt 0.07692300 0.80769200
vt 0.94758400 0.92307700
vt 0.93348800 0.07692300
vt 0.15384600 0.84615400
vt 0.94758400 0.84615400
vt 0.92194300 0.92307700
vt 0.15384600 0.76923100
vt 0.07692300 0.76923100
vt 0.92194300 0.84615400
vt 0.94871600 0.84615400
vt 0.96158800 0.37643900
vt 0.93481300 0.28925100
vt 0.91030600 0.30769200
vt 0.91030600 0.34615400
vt 0.96158800 0.41490100
vt 0.93481300 0.21232700
vt 0.83338300 0.30769200
vt 0.96158800 0.45336300
vt 0.92307500 0.76923100
vt 0.91030600 0.38461500
vt 0.92307500 0.84615400
vt 0.83338300 0.38461500
vt 0.91030600 0.37837700
vt 0.96158800 0.44712400
vt 0.98722900 0.45143900
vt 0.95912900 0.15192300
f 85/85/85 36/36/36 12/12/12
f 65/65/65 34/34/34 33/33/33
f 47/47/47 16/16/16 13/13/13
f 71/71/71 10/10/10 4/4/4
f 100/100/100 22/22/22 26/26/26
f 46/46/46 38/38/38 41/41/41
f 45/45/45 14/14/14 21/21/21
f 44/44/44 21/21/21 8/8/8
f 39/39/39 7/7/7 17/17/17
f 52/52/52 53/53/53 56/56/56
f 55/55/55 27/27/27 29/29/29
f 51/51/51 28/28/28 15/15/15
f 64/64/64 58/58/58 61/61/61
f 63/63/63 18/18/18 35/35/35
f 59/59/59 32/32/32 19/19/19
f 73/73/73 72/72/72 75/75/75
f 70/70/70 20/20/20 9/9/9
f 83/83/83 80/80/80 87/87/87
f 76/76/76 31/31/31 105/105/105
f 81/81/81 11/11/11 30/30/30
f 89/89/89 1/1/1 37/37/37
f 79/79/79 25/25/25 1/1/1
f 96/96/96 93/93/93 102/102/102
f 23/23/23 97/97/97 103/103/103
f 94/94/94 5/5/5 2/2/2
f 91/91/91 3/3/3 6/6/6
f 94/94/94 104/104/104 23/23/23
f 85/85/85 88/88/88 36/36/36
f 65/65/65 62/62/62 34/34/34
f 47/47/47 40/40/40 16/16/16
f 71/71/71 69/69/69 10/10/10
f 100/100/100 98/98/98 22/22/22
f 41/41/41 49/49/49 46/46/46
f 46/46/46 43/43/43 38/38/38
f 45/45/45 48/48/48 14/14/14
f 44/44/44 45/45/45 21/21/21
f 39/39/39 42/42/42 7/7/7
f 52/52/52 50/50/50 53/53/53
f 55/55/55 54/54/54 27/27/27
f 51/51/51 57/57/57 28/28/28
f 64/64/64 67/67/67 58/58/58
f 63/63/63 60/60/60 18/18/18
f 59/59/59 66/66/66 32/32/32
f 73/73/73 68/68/68 72/72/72
f 70/70/70 74/74/74 20/20/20
f 87/87/87 86/86/86 83/83/83
f 83/83/83 77/77/77 80/80/80
f 105/105/105 24/24/24 76/76/76
f 76/76/76 82/82/82 31/31/31
f 81/81/81 84/84/84 11/11/11
f 89/89/89 79/79/79 1/1/1
f 79/79/79 78/78/78 25/25/25
f 99/99/99 101/101/101 96/96/96
f 96/96/96 92/92/92 93/93/93
f 102/102/102 99/99/99 96/96/96
f 94/94/94 90/90/90 5/5/5
f 91/91/91 95/95/95 3/3/3
f 23/23/23 103/103/103 94/94/94
f 94/94/94 2/2/2 104/104/104

